<mxfile host="Electron" modified="2023-12-24T12:01:32.807Z" agent="Mozilla/5.0 (X11; Linux x86_64) AppleWebKit/537.36 (KHTML, like Gecko) draw.io/22.1.11 Chrome/114.0.5735.289 Electron/25.9.8 Safari/537.36" etag="VQi-uWUI-fLC4TwW0ves" version="22.1.11" type="device">
  <diagram name="Page-1" id="UuSKtnbkM4fSoTGVceL5">
    <mxGraphModel dx="1280" dy="131" grid="0" gridSize="10" guides="1" tooltips="1" connect="1" arrows="1" fold="1" page="0" pageScale="1" pageWidth="1169" pageHeight="827" math="0" shadow="1">
      <root>
        <mxCell id="0" />
        <mxCell id="1" parent="0" />
        <mxCell id="zYV0z6wbjtyRx3BdHIES-20" value="" style="swimlane;whiteSpace=wrap;html=1;rounded=1;shadow=0;strokeWidth=4;align=center;verticalAlign=middle;fontFamily=Helvetica;fontSize=24;swimlaneLine=0;" parent="1" vertex="1">
          <mxGeometry x="-160" y="640" width="840" height="1120" as="geometry">
            <mxRectangle x="80" y="630" width="240" height="40" as="alternateBounds" />
          </mxGeometry>
        </mxCell>
        <mxCell id="zYV0z6wbjtyRx3BdHIES-23" value="" style="edgeStyle=orthogonalEdgeStyle;rounded=0;orthogonalLoop=1;jettySize=auto;html=1;fontFamily=Helvetica;fontSize=24;fontColor=default;swimlaneLine=0;" parent="zYV0z6wbjtyRx3BdHIES-20" source="zYV0z6wbjtyRx3BdHIES-21" target="zYV0z6wbjtyRx3BdHIES-22" edge="1">
          <mxGeometry relative="1" as="geometry" />
        </mxCell>
        <mxCell id="zYV0z6wbjtyRx3BdHIES-21" value="&lt;b&gt;SDE&lt;/b&gt;" style="rounded=1;whiteSpace=wrap;html=1;strokeWidth=4;align=center;verticalAlign=middle;fontFamily=Helvetica;fontSize=24;shadow=1;swimlaneLine=0;" parent="zYV0z6wbjtyRx3BdHIES-20" vertex="1">
          <mxGeometry x="270" y="130" width="120" height="60" as="geometry" />
        </mxCell>
        <mxCell id="zYV0z6wbjtyRx3BdHIES-36" value="" style="group;shadow=0;swimlaneLine=0;" parent="zYV0z6wbjtyRx3BdHIES-20" vertex="1" connectable="0">
          <mxGeometry x="240" y="270" width="180" height="100" as="geometry" />
        </mxCell>
        <mxCell id="zYV0z6wbjtyRx3BdHIES-22" value="&lt;b&gt;Programming Language&lt;/b&gt;" style="rounded=1;whiteSpace=wrap;html=1;strokeWidth=4;align=center;verticalAlign=middle;fontFamily=Helvetica;fontSize=24;fontColor=default;fillColor=none;gradientColor=none;swimlaneLine=0;strokeColor=default;" parent="zYV0z6wbjtyRx3BdHIES-36" vertex="1">
          <mxGeometry width="180" height="100" as="geometry" />
        </mxCell>
        <mxCell id="zYV0z6wbjtyRx3BdHIES-39" value="Java" style="whiteSpace=wrap;html=1;fontSize=24;fillColor=none;rounded=1;strokeWidth=4;gradientColor=none;swimlaneLine=0;" parent="zYV0z6wbjtyRx3BdHIES-20" vertex="1">
          <mxGeometry x="270" y="470" width="120" height="60" as="geometry" />
        </mxCell>
        <mxCell id="zYV0z6wbjtyRx3BdHIES-40" value="" style="edgeStyle=none;rounded=0;orthogonalLoop=1;jettySize=auto;html=1;fontFamily=Helvetica;fontSize=24;fontColor=default;swimlaneLine=0;" parent="zYV0z6wbjtyRx3BdHIES-20" source="zYV0z6wbjtyRx3BdHIES-22" target="zYV0z6wbjtyRx3BdHIES-39" edge="1">
          <mxGeometry relative="1" as="geometry" />
        </mxCell>
      </root>
    </mxGraphModel>
  </diagram>
</mxfile>
